<?xml version="1.0" encoding="utf-8"?><!-- Uploaded to: SVG Repo, www.svgrepo.com, Generator: SVG Repo Mixer Tools -->
<svg fill="#000000" width="800px" height="800px" viewBox="0 0 24 24" id="dislike" data-name="Flat Line" xmlns="http://www.w3.org/2000/svg" class="icon flat-line"><path id="secondary" d="M7,4a9.37,9.37,0,0,1,4.24-1h4.2a4,4,0,0,1,3.88,3l1.62,6.49A2,2,0,0,1,19,15H16a31.13,31.13,0,0,1,.12,3.77A2.28,2.28,0,0,1,13.82,21h-.05a2.2,2.2,0,0,1-2.15-1.72c-.36-1.5-.74-2.83-1.11-3.92A2,2,0,0,0,8.62,14H7Z" style="fill: rgb(44, 169, 188); stroke-width: 2;"></path><path id="primary" d="M7.08,14H8.62a2,2,0,0,1,1.89,1.36c.37,1.09.75,2.42,1.11,3.92A2.2,2.2,0,0,0,13.77,21h.05a2.28,2.28,0,0,0,2.29-2.23A31.13,31.13,0,0,0,16,15h3a2,2,0,0,0,1.94-2.48L19.32,6a4,4,0,0,0-3.88-3h-4.2a9.53,9.53,0,0,0-4.13.94" style="fill: none; stroke: rgb(0, 0, 0); stroke-linecap: round; stroke-linejoin: round; stroke-width: 2;"></path><rect id="primary-2" data-name="primary" x="3" y="3" width="4" height="12" style="fill: none; stroke: rgb(0, 0, 0); stroke-linecap: round; stroke-linejoin: round; stroke-width: 2;"></rect></svg>