<svg xmlns="http://www.w3.org/2000/svg" fill="none" viewBox="0 0 100 100"><path fill="#fff" d="M31.015 61.316v-21.88h1.187v3.442q.21-.23.387-.486a5.88 5.88 0 0 1 5.364-3.328c2.706-.08 4.905.92 6.197 3.328a10.7 10.7 0 0 1 .258 9.808c-1.204 2.699-4.177 4.04-7.36 3.547a5.95 5.95 0 0 1-4.751-3.134v8.7zm1.187-14.14.266 2.57c.469 2.923 2.198 4.651 4.912 4.976a5.58 5.58 0 0 0 6.132-3.547 9.52 9.52 0 0 0-.209-7.82 5.47 5.47 0 0 0-5.76-3.184 5.33 5.33 0 0 0-4.759 3.934 27 27 0 0 0-.582 3.07zm37.499 2.974a6.4 6.4 0 0 1-6.254 5.655c-4.977.25-7.312-3.054-7.683-6.867a11 11 0 0 1 .97-6.06 6.76 6.76 0 0 1 7.036-3.773 6.47 6.47 0 0 1 5.736 4.92 33 33 0 0 1 .557 3.636h-13.07c-.242 3.458 1.616 6.238 4.25 6.908 3.28.807 6.083-.614 7.101-3.733.226-.8.638-.913 1.365-.686zm-12.717-3.596h11.69c-.073-3.683-2.366-6.36-5.478-6.39-3.512-.058-6.06 2.512-6.212 6.39m15.133 3.676h1.146a4.6 4.6 0 0 0 2.698 3.96 7.05 7.05 0 0 0 6.124-.162 2.75 2.75 0 0 0 1.616-2.707 2.496 2.496 0 0 0-1.68-2.496c-1.26-.47-2.602-.728-3.886-1.14a28.5 28.5 0 0 1-3.91-1.43c-2.07-1.01-2.198-4.944.145-6.19a8.25 8.25 0 0 1 7.885-.121 4.15 4.15 0 0 1 2.101 4.234h-.982c0-.047-.09-.089-.09-.137-.121-3.133-2.755-4.113-5.582-3.838a7.1 7.1 0 0 0-2.424.735 2.42 2.42 0 0 0-1.405 2.424 2.42 2.42 0 0 0 1.616 2.278c1.234.453 2.544.744 3.821 1.099l3.086.807a3.645 3.645 0 0 1 2.504 3.288 3.89 3.89 0 0 1-2.092 4.04c-2.698 1.527-7.142 1.123-9.122-.807a5.4 5.4 0 0 1-1.566-3.837zm27.323-6.05h-1.075c0-.146-.057-.286-.073-.397a3.51 3.51 0 0 0-2.86-3.377 7.05 7.05 0 0 0-4.532.219 2.75 2.75 0 0 0-1.996 2.626 2.535 2.535 0 0 0 1.939 2.553l4.912 1.26q.796.192 1.566.477a4.05 4.05 0 0 1 2.677 3.686 4.03 4.03 0 0 1-2.468 3.836 9 9 0 0 1-7.271.073 5.04 5.04 0 0 1-3.038-4.896h1.05a5.89 5.89 0 0 0 8.968 3.75 2.89 2.89 0 0 0 1.55-2.699 2.5 2.5 0 0 0-1.704-2.48c-1.261-.47-2.602-.72-3.886-1.14a29 29 0 0 1-3.934-1.414c-2.02-.994-2.182-4.896.121-6.14a8.14 8.14 0 0 1 8.015-.09 4.23 4.23 0 0 1 2.028 4.145zM29.063 55.41a1.85 1.85 0 0 1-2.295-.872L22.59 48.76l-.605-.807-4.848 6.592a1.776 1.776 0 0 1-2.181.857l6.245-8.378-5.81-7.57a1.93 1.93 0 0 1 2.302.806l4.329 5.848 4.355-5.825a1.737 1.737 0 0 1 2.165-.808l-2.255 2.991-3.054 3.976a.807.807 0 0 0 0 1.203l5.817 7.764zm26.516-16.037v1.14a5.86 5.86 0 0 0-6.238 6.051v8.887h-1.155V39.445h1.14v3.28c1.397-2.393 3.554-3.28 6.26-3.345zM.002 46.92l.509-2.513c1.397-4.969 7.094-7.037 11.013-3.959 2.294 1.802 2.867 4.355 2.755 7.231H1.35c-.209 5.139 3.498 8.241 8.24 6.658a4.94 4.94 0 0 0 3.127-3.483c.25-.807.665-.945 1.422-.712a6.56 6.56 0 0 1-3.135 4.792 7.595 7.595 0 0 1-8.847-1.131 7.96 7.96 0 0 1-1.987-4.67c0-.286-.095-.552-.162-.808Q0 47.607 0 46.92zm1.365-.347h11.69c-.072-3.725-2.423-6.367-5.558-6.392-3.49-.047-5.987 2.537-6.14 6.375z"/></svg>