<svg xmlns="http://www.w3.org/2000/svg" fill="none" viewBox="0 0 100 100"><g fill="#fff" clip-path="url(#a)"><path d="M.464 42.79A51 51 0 0 0 0 47.825h75.957c-.265-.519-.622-.986-.981-1.443-12.985-16.776-19.97-15.322-29.963-15.748-3.331-.137-5.59-.192-18.851-.192-7.097 0-14.813.018-22.327.038-.973 2.625-1.91 5.17-2.368 7.24H40.39v5.07zm76.092 10.109H.039c.08 1.353.206 2.687.388 4.004h70.644c3.15 0 4.912-1.787 5.485-4.004M4.396 70.732s11.712 28.756 45.551 29.267c20.226 0 37.605-12.012 45.499-29.267z"/><path d="M49.947-.001c-18.702 0-34.975 10.27-43.57 25.45 6.717-.014 19.796-.022 19.796-.022h.003v-.005c15.46 0 16.035.07 19.055.195l1.87.07c6.514.217 14.52.916 20.82 5.682 3.419 2.585 8.356 8.29 11.299 12.356 2.72 3.76 3.503 8.081 1.653 12.222-1.702 3.806-5.366 6.076-9.803 6.076H1.63s.413 1.752 1.033 3.686h94.788A49.8 49.8 0 0 0 100 50.02C100.001 22.397 77.591 0 49.947 0"/></g><defs><clipPath id="a"><path fill="#fff" d="M0-.001h100v100H0z"/></clipPath></defs></svg>